<svg width="127" height="200" viewBox="0 0 127 200" fill="none" xmlns="http://www.w3.org/2000/svg">
<mask id="mask0_38_143" style="mask-type:luminance" maskUnits="userSpaceOnUse" x="0" y="0" width="127" height="200">
<path d="M126.59 0H0V200H126.59V0Z" fill="white"/>
</mask>
<g mask="url(#mask0_38_143)">
<path d="M126.59 18.9509L93.7655 0L0 54.1352V92.0377L13.7912 100.001L0 107.965V145.866L93.7655 200.002L126.588 181.051V143.149L51.8552 100.001L126.59 56.8535V18.9509ZM4.70574 56.8511L91.4138 6.79147V36.5423L16.6507 79.7083L4.70574 86.6043V56.8511ZM4.70574 110.68L30.4707 95.8028V125.555L12.8817 135.711L4.7034 140.433L4.70574 110.68ZM93.7655 194.568L7.05744 144.507L15.235 139.785L32.8248 129.629L107.588 172.793L119.533 179.689L93.7655 194.568ZM121.884 175.617L109.94 168.721L35.1765 125.558V95.8044L121.884 145.866V175.617ZM47.1495 97.2833L32.8224 89.0114L18.4969 97.2833L7.05744 90.6774L19.0024 83.7822L93.7655 40.6178L111.355 50.7734L119.533 55.4955L47.1495 97.2833ZM121.884 51.4177L113.707 46.6955L96.1172 36.5399V6.79147L121.883 21.6669L121.884 51.4177Z" fill="#121212"/>
</g>
</svg>
