<svg width="401" height="128" viewBox="0 0 401 128" fill="none" xmlns="http://www.w3.org/2000/svg">
<mask id="mask0_20_2461" style="mask-type:luminance" maskUnits="userSpaceOnUse" x="0" y="0" width="82" height="128">
<path d="M81.8776 0H0.859863V128H81.8776V0Z" fill="white"/>
</mask>
<g mask="url(#mask0_20_2461)">
<path d="M81.8776 12.1286L60.8698 0L0.859863 34.6465V58.9042L9.68623 64.0005L0.859863 69.0973V93.3545L60.8698 128.001L81.8761 115.872V91.6153L34.0472 64.0005L81.8776 36.3862V12.1286ZM3.87154 36.3847L59.3647 4.34654V23.387L11.5163 51.0133L3.87154 55.4267V36.3847ZM3.87154 70.835L20.3611 61.3138V80.3553L9.10416 86.8549L3.87004 89.877V70.835H3.87154ZM60.8698 124.524L5.37663 92.4844L10.6102 89.4622L21.8677 82.9626L69.7161 110.587L77.3608 115.001L60.8713 124.523L60.8698 124.524ZM78.8659 112.395L71.2212 107.982L23.3728 80.3568V61.3148L78.8659 93.3545V112.396V112.395ZM31.0355 62.2613L21.8662 56.9673L12.6979 62.2613L5.37663 58.0336L13.0214 53.6206L60.8698 25.9954L72.1272 32.495L77.3608 35.5171L31.0355 62.2613ZM78.8659 32.9073L73.6323 29.8851L62.3748 23.3855V4.34654L78.8649 13.8668V32.9088L78.8659 32.9073Z" fill="#121212"/>
</g>
<path d="M116.467 49.4219C116.854 49.4219 117.067 49.6295 117.067 50.0069V62.2753H124.596C128.487 62.2753 129.648 61.8979 131.409 59.652L139.074 49.7993C139.287 49.5162 139.5 49.4219 140.023 49.4219H143.196C143.758 49.4219 143.797 49.8746 143.584 50.1392L135.183 60.7088C133.945 62.2943 132.996 63.2572 131.757 63.8423C133.248 64.5027 134.448 65.5031 135.648 66.9753L144.726 77.8663C144.9 78.074 144.939 78.659 144.339 78.659H141.087C140.564 78.659 140.409 78.5268 140.197 78.2811L131.757 68.051C130.132 66.0882 128.68 65.3708 124.906 65.3708H117.067V78.074C117.067 78.4514 116.854 78.659 116.467 78.659H113.563C113.176 78.659 112.963 78.4514 112.963 78.074V50.0069C112.963 49.6295 113.176 49.4219 113.563 49.4219H116.467Z" fill="#121212"/>
<path d="M182.663 49.4219C189.05 49.4219 191.566 52.3477 191.566 57.8968V60.0673C191.566 65.0314 189.553 67.8813 184.54 68.41L192.728 77.8853C192.94 78.1304 192.863 78.6401 192.34 78.6401H188.953C188.489 78.6401 188.276 78.5078 188.102 78.2627L180.224 68.7499H162.959V78.055C162.959 78.4324 162.746 78.6401 162.359 78.6401H159.456C159.069 78.6401 158.855 78.4324 158.855 78.055V50.6674C158.855 49.8372 159.281 49.4219 160.133 49.4219H182.663ZM162.959 65.5031H181.928C185.953 65.5031 187.444 63.71 187.444 60.1617V58.4065C187.444 54.8577 185.953 53.0645 181.928 53.0645H163.424C163.075 53.0645 162.959 53.1968 162.959 53.5178V65.5031Z" fill="#121212"/>
<path d="M206.723 49.4219C207.014 49.4219 207.246 49.4973 207.401 49.7613L221.182 66.4656L234.924 49.7613C235.099 49.5162 235.311 49.4219 235.602 49.4219H239.105C239.454 49.4219 239.569 49.7049 239.357 50.0069L223.137 69.3724V78.055C223.137 78.4324 222.924 78.6401 222.537 78.6401H219.633C219.246 78.6401 219.033 78.4324 219.033 78.055V69.3724L202.872 50.0069C202.659 49.7239 202.794 49.4219 203.123 49.4219H206.723Z" fill="#121212"/>
<path d="M277.294 49.4219C283.681 49.4219 286.197 52.3472 286.197 57.8968V60.4447C286.197 65.9938 283.661 68.9196 277.294 68.9196H257.59V78.055C257.59 78.4324 257.377 78.6401 256.99 78.6401H254.086C253.699 78.6401 253.486 78.4324 253.486 78.055V50.6674C253.486 49.8372 253.912 49.4219 254.764 49.4219H277.294ZM257.59 65.4088H276.558C280.584 65.4088 282.075 63.6156 282.075 60.0673V58.406C282.075 54.8577 280.584 53.0645 276.558 53.0645H258.054C257.706 53.0645 257.59 53.2343 257.59 53.5178V65.4088Z" fill="#121212"/>
<path d="M333.384 49.4219C333.809 49.4219 333.983 49.6295 333.983 50.0069V52.5928C333.983 52.9702 333.809 53.1779 333.384 53.1779H318.731V78.055C318.731 78.4324 318.518 78.6401 318.092 78.6401H315.228C314.802 78.6401 314.628 78.4324 314.628 78.055V53.1779H299.976C299.55 53.1779 299.375 52.9702 299.375 52.5928V50.0069C299.375 49.6295 299.55 49.4219 299.976 49.4219H333.384Z" fill="#121212"/>
<path d="M352.043 49.4219C352.43 49.4219 352.643 49.6295 352.643 50.0069V78.074C352.643 78.4514 352.43 78.659 352.043 78.659H349.14C348.753 78.659 348.54 78.4514 348.54 78.074V50.0069C348.54 49.6295 348.753 49.4219 349.14 49.4219H352.043Z" fill="#121212"/>
<path d="M399.581 49.4219C400.007 49.4219 400.22 49.6295 400.22 50.0069V52.5928C400.22 52.9702 400.007 53.1779 399.581 53.1779H380.536C374.749 53.1779 372.793 55.1033 372.793 60.7842V67.2962C372.793 72.9776 374.768 74.9026 380.536 74.9026H399.581C400.007 74.9026 400.22 75.1102 400.22 75.4881V78.074C400.22 78.4514 400.007 78.659 399.581 78.659H380.4C371.923 78.659 368.671 75.6579 368.671 67.6362V60.4447C368.671 52.4231 371.923 49.4219 380.4 49.4219H399.581Z" fill="#121212"/>
</svg>
