<svg width="222" height="54" viewBox="0 0 222 54" fill="none" xmlns="http://www.w3.org/2000/svg">
<path d="M53.4044 23.9646C53.8152 24.9635 54.0107 25.9904 54.0107 26.9975H54.0058C54.0058 28.0474 53.7971 29.0808 53.4044 30.0354L47.838 43.4767C47.4207 44.4904 46.8259 45.3678 46.1046 46.089C45.3554 46.8382 44.4633 47.4248 43.489 47.8273L30.0461 53.3954C29.0537 53.8012 28.0269 53.9951 27.0132 53.9951V54C25.9699 54 24.9364 53.7897 23.9753 53.3937L10.534 47.8273C9.52029 47.41 8.64294 46.8152 7.92167 46.094C7.17247 45.3448 6.58428 44.4526 6.18339 43.4767L0.615315 30.0354C0.207854 29.0431 0.015625 28.0162 0.015625 27.0025C0.015625 25.951 0.224284 24.9192 0.616958 23.9646L6.18339 10.5217C6.59742 9.51617 7.19383 8.63882 7.91838 7.91262L7.91674 7.91097C8.66594 7.16177 9.55808 6.57358 10.534 6.1727L23.9753 0.604619C24.966 0.197158 25.9945 0.00492896 27.0082 0.00492896V0C28.0515 0 29.0833 0.210302 30.0461 0.606262L43.489 6.1727C44.4945 6.58673 45.3719 7.18313 46.0981 7.90769L46.0997 7.90605C46.8489 8.65525 47.4371 9.54739 47.838 10.5217L53.4044 23.9646ZM32.2329 49.9862L32.7209 49.7841C31.0582 47.2424 29.4941 44.2587 28.0417 40.9859C26.2689 36.9869 24.6538 32.5262 23.2343 27.8946C22.4802 25.4351 21.7934 22.8671 21.2134 20.2531C19.0644 21.4837 17.0041 22.7373 15.067 24.0106C13.6163 27.7566 12.3742 31.4237 11.4327 34.9052C10.6063 37.9628 10.0148 40.8693 9.72074 43.5506L9.72567 43.549C9.65666 44.055 9.61559 44.3984 9.58766 44.8387C9.85053 45.0309 10.2876 45.2232 10.6112 45.3579L11.3588 45.6668L11.3621 45.6684L11.3654 45.6701H11.3687L11.3719 45.6717L11.3752 45.6733L11.3785 45.675L11.3818 45.6766L11.3851 45.6783L11.3884 45.6799H11.3917L11.3949 45.6816L11.3982 45.6832L11.4015 45.6849L11.4048 45.6865L11.4081 45.6881H11.4114L13.3797 46.5031L24.8543 51.2562C25.4918 51.5174 26.1834 51.6637 26.8932 51.6785L26.9162 51.6505L26.9179 51.6538C27.7771 51.644 28.7071 51.4468 29.4661 51.133L32.2329 49.9862ZM7.71137 41.1239C8.05475 38.9503 8.55751 36.6681 9.19663 34.3072C10.2876 30.2671 11.7778 25.9805 13.5308 21.602C15.2198 17.3828 17.1109 13.4659 19.112 9.96635C20.4905 7.55938 21.9248 5.3397 23.3854 3.35169L21.6735 4.05982V4.06146L19.301 5.04397L11.4114 8.31186C10.7279 8.59281 10.0953 9.01177 9.55644 9.55067L9.5548 9.54739L9.55151 9.55067C9.0389 10.0633 8.61665 10.686 8.32256 11.4007L2.75448 24.8436C2.47517 25.5238 2.32566 26.2582 2.32566 27.0025C2.32566 27.7188 2.46367 28.4483 2.75448 29.1564L3.28352 30.4347L4.25124 32.7726L4.97744 34.5224L6.60564 38.4557L7.71137 41.1239ZM27.1216 2.32154C25.081 4.7778 23.0519 7.74668 21.1231 11.1164C19.5096 13.9374 17.9735 17.0279 16.5638 20.3204C18.4318 19.1704 20.3821 18.0433 22.3914 16.9392C25.9666 14.9742 29.8457 13.1176 33.8513 11.5781C36.9828 10.3755 40.1768 9.37487 43.3461 8.67661C43.1128 8.5386 42.868 8.41701 42.61 8.31022L40.7764 7.55116L40.203 7.31457L33.8693 4.68908V4.69072L29.1671 2.74379C28.528 2.48091 27.8346 2.33468 27.1216 2.32154ZM48.1009 17.1988L46.9261 14.3646H46.9278L45.781 11.5978C45.6463 11.2742 45.454 10.8355 45.2618 10.5726L44.5208 10.7714L44.5027 10.7763L44.4847 10.7813L44.4682 10.7862L44.4502 10.7911L44.4321 10.7944L44.4206 10.7977L44.0953 10.8815C40.944 11.5568 37.7747 12.5442 34.676 13.7337C30.8085 15.219 27.023 17.0345 23.5054 18.9683L23.3838 19.034C23.9818 21.8271 24.7064 24.5725 25.5098 27.1963C26.8965 31.7228 28.4803 36.0931 30.2236 40.0264C31.7039 43.3633 33.291 46.3683 34.9586 48.8575L42.61 45.6881C43.2935 45.4072 43.926 44.9882 44.4649 44.4493C44.9825 43.9318 45.408 43.3091 45.6988 42.5993L46.4907 40.6885V40.6869L46.9245 39.642L48.7581 35.2141L50.314 31.4582H50.3123L51.2669 29.1564C51.5462 28.4746 51.6957 27.7418 51.6957 26.9975H51.6908C51.6908 26.273 51.5544 25.5435 51.2669 24.8436L50.8726 23.8923V23.8939L49.9065 21.5609L48.1009 17.1988Z" fill="#121212"/>
<path d="M31.5658 49.3191L31.4738 49.4539L29.5466 50.2524C28.9469 50.5021 28.2338 50.7633 27.6637 50.7255C28.5378 49.6116 29.4102 48.404 30.2695 47.1143C30.695 47.8766 31.1271 48.6127 31.5658 49.3191ZM46.0421 14.2759C45.7316 15.9337 45.3389 17.6539 44.8707 19.4168C45.1336 20.2252 45.3915 21.0417 45.6429 21.8665C45.9386 22.8293 46.2245 23.8069 46.4972 24.7959C47.5142 23.9235 48.4573 23.0511 49.315 22.1787L50.2712 24.4887C49.3133 25.417 48.2667 26.3453 47.1462 27.2703C47.4387 28.445 47.7114 29.6329 47.9595 30.8273C48.1616 31.7967 48.3472 32.771 48.5165 33.7486L46.7437 38.0302C46.4726 35.7875 46.0931 33.5383 45.6281 31.312C45.4605 30.5037 45.2798 29.6986 45.0908 28.8985C44.5602 29.3027 44.0147 29.7068 43.4577 30.1094C42.5426 30.7698 41.5929 31.4287 40.617 32.0777L40.4905 32.398C38.8541 36.4841 37.0024 40.3189 35.0407 43.7724C34.6595 44.4428 34.2751 45.0983 33.8857 45.7391C33.7197 45.4499 33.5571 45.1542 33.3928 44.8552C33.1299 44.3705 32.867 43.8726 32.6091 43.3633C32.7487 43.1202 32.89 42.877 33.0297 42.6305C34.5002 40.0445 35.9066 37.2366 37.2045 34.2595C35.4367 35.3472 33.6047 36.4069 31.7334 37.4338C31.2421 37.7049 30.7443 37.9727 30.2415 38.2372C29.9425 37.5307 29.6501 36.8127 29.3625 36.0833C29.7848 35.8598 30.2037 35.6331 30.6194 35.4063C33.4536 33.8488 36.1891 32.2206 38.7325 30.553C40.1898 26.8332 41.4516 23.1283 42.4243 19.5943C41.7145 17.4436 40.9702 15.3554 40.1865 13.3542C40.1011 13.1357 40.0157 12.9172 39.9286 12.7019L40.1865 12.6264C40.8684 12.4243 41.5535 12.237 42.2386 12.0628L42.4062 12.4867C42.7693 13.4133 43.1242 14.3597 43.4709 15.3241C43.737 14.0722 43.9572 12.8547 44.1264 11.68L44.1346 11.6783L44.1593 11.6701L44.1642 11.6668L44.2069 11.6553L44.225 11.6488L44.2316 11.6471L44.2546 11.6406H44.2562L44.2792 11.6323L44.2858 11.6307L44.3038 11.6258L44.3482 11.6143L44.3531 11.6126L44.3778 11.6061L44.4024 11.5995L44.409 11.5978L44.4271 11.5946L44.4517 11.588L44.4714 11.5831L44.4764 11.5814L44.501 11.5765H44.5026L44.5257 11.5699L44.5339 11.5683L44.5503 11.565L44.5651 11.5617L44.5749 11.5601L44.5963 11.5551H44.6012L44.6259 11.5502H44.6275L44.6505 11.5453L44.6604 11.5436L44.6768 11.5403L44.6916 11.5371H44.7015L44.7507 11.5288L44.754 11.5272L44.777 11.5239L44.8181 11.5173H44.8263L44.8493 11.5141H44.851L44.8772 11.5108C44.9972 11.7375 45.1089 11.9905 45.2157 12.278L46.0421 14.2759ZM43.6664 23.5571C43.1784 25.1065 42.6444 26.6788 42.0694 28.2626L42.1088 28.2331C42.927 27.6432 43.7173 27.0485 44.478 26.4521C44.2201 25.4745 43.949 24.5084 43.6664 23.5571ZM10.6588 43.3436C13.5915 42.6716 16.5604 41.7318 19.4718 40.6146C21.6586 39.775 23.824 38.8303 25.9287 37.8199C26.2162 38.5461 26.5103 39.2608 26.8077 39.9623C24.6948 40.9711 22.5113 41.9191 20.2965 42.7702C17.7039 43.7642 15.0801 44.6218 12.4825 45.284L11.2913 44.7911C11.0038 44.6859 10.7508 44.5726 10.5241 44.4526C10.5553 44.2029 10.6029 43.7757 10.6588 43.3436ZM3.88477 29.8366C5.7972 27.9685 8.04809 26.1202 10.5569 24.3096C11.0695 23.9399 11.5904 23.5719 12.1227 23.2055C11.6216 24.5084 11.1435 25.8015 10.6966 27.0764C8.48348 28.7457 6.50861 30.4412 4.84263 32.1499L3.88477 29.8366ZM20.5742 17.1216C20.4576 16.4989 20.3491 15.8745 20.2473 15.2518C20.2045 14.9906 20.1635 14.7277 20.1224 14.4665C20.6531 13.4462 21.1969 12.4489 21.7522 11.4779C21.8541 11.2988 21.956 11.123 22.0595 10.9472C22.2024 12.2501 22.3831 13.5596 22.5967 14.869C22.6526 15.2157 22.7117 15.5607 22.7725 15.9058C22.5277 16.0388 22.2846 16.1719 22.0414 16.305C21.5485 16.5744 21.0589 16.8472 20.5742 17.1216ZM21.3004 5.06369C20.6613 6.01334 20.032 6.99913 19.4159 8.02106C19.3715 7.30472 19.3387 6.59331 19.319 5.88518L21.3004 5.06369ZM40.6811 8.35952L40.7698 8.55832C40.2342 8.70126 39.6969 8.85077 39.1613 9.0085C38.9264 9.0775 38.6914 9.14815 38.4565 9.22044C38.1164 8.46467 37.7697 7.72533 37.4165 7.00734L40.6811 8.35952Z" fill="#121212"/>
<path fill-rule="evenodd" clip-rule="evenodd" d="M88.8175 36.0438H93.3078L82.5429 26.7231L92.9792 17.9545H88.5727L78.8216 26.2648V17.9545H75.9053V36.0438H78.8216V27.2653L88.8175 36.0438ZM207.076 36.0438H221.16V33.1275H206.649V20.9021H221.16V17.9545H207.076C204.977 17.9545 203.733 19.2426 203.733 21.3292V32.7003C203.733 34.9792 204.799 36.0438 207.076 36.0438ZM193.67 36.0438H196.586V17.9545H193.67V36.0438ZM187.337 20.9021V17.9545H169.248V20.9021H176.85V36.0438H179.735V20.9021H187.337ZM162.914 27.6564C163.458 27.1125 163.729 26.2697 163.729 25.1295V21.3292C163.729 20.6375 163.534 20.0132 163.148 19.4398C162.53 18.5247 161.498 17.9545 160.388 17.9545H145.974V36.0438H148.888V28.4729H160.388C161.275 28.4729 162.261 28.3103 162.914 27.6564ZM160.813 25.5566H148.888V20.9021H160.813V25.5566ZM139.665 17.9545H136.413L130.952 26.8234L125.62 17.9545H122.244L129.424 29.7479V36.0438H132.37V29.7462L139.665 17.9545ZM112.996 36.0438H117.364L108.285 28.4729H114.077C115.238 28.4729 116.096 28.2002 116.651 27.6531C117.203 27.1093 117.481 26.268 117.481 25.1295V21.3292C117.481 20.6441 117.286 20.0083 116.898 19.4447C116.268 18.5279 115.191 17.9545 114.077 17.9545H100.024V36.0438H102.972V28.4729H104.127L112.996 36.0438ZM114.504 25.7078H102.972V20.9021H114.504V25.7078Z" fill="#121212"/>
</svg>
